<?xml version="1.0" encoding="UTF-8"?>
<svg id="Layer_2" xmlns="http://www.w3.org/2000/svg" viewBox="0 0 334.38 287.88">
  <defs>
    <style>
      .cls-1 {
        fill: #76a36b;
      }
    </style>
  </defs>
  <g id="Layer_1-2" data-name="Layer_1">
    <g>
      <path class="cls-1" d="M3.38,268.67v6.21h4.86v3.08H3.38v6.53h6.03v3.08H.05v-21.97h9.35v3.08H3.38Z"/>
      <path class="cls-1" d="M19.79,287.57l-4.36-14.56h-.06v14.56h-3.14v-21.97h3.7l3.92,13.09h.06v-13.09h3.14v21.97h-3.26Z"/>
      <path class="cls-1" d="M36.7,270.56v1.51l-3.2.16v-1.32c0-1.76-.66-2.54-1.95-2.54s-1.95.78-1.95,2.23v11.99c0,1.44.63,2.23,1.91,2.23s1.91-.79,1.91-2.54v-3.77h-1.88v-3.08h5.15v7.19c0,3.33-1.91,5.27-5.24,5.27s-5.18-1.95-5.18-5.27v-12.05c0-3.33,1.88-5.27,5.18-5.27s5.24,1.95,5.24,5.27Z"/>
      <path class="cls-1" d="M39.84,287.57v-21.97h3.33v21.97h-3.33Z"/>
      <path class="cls-1" d="M54.31,287.57l-4.36-14.56h-.06v14.56h-3.14v-21.97h3.7l3.92,13.09h.06v-13.09h3.14v21.97h-3.26Z"/>
      <path class="cls-1" d="M64.47,268.67v6.21h4.86v3.08h-4.86v6.53h6.03v3.08h-9.35v-21.97h9.35v3.08h-6.03Z"/>
      <path class="cls-1" d="M76.65,268.67v6.21h4.86v3.08h-4.86v6.53h6.03v3.08h-9.35v-21.97h9.35v3.08h-6.03Z"/>
      <path class="cls-1" d="M90.05,278.28h-1.54v9.29h-3.33v-21.97h4.8c3.58,0,5.52,1.95,5.52,5.55v1.57c0,2.32-.82,3.96-2.35,4.83l3.04,10.01h-3.52l-2.64-9.29ZM88.51,275.2h1.35c1.6,0,2.32-.85,2.32-2.7v-1.13c0-1.85-.72-2.7-2.32-2.7h-1.35v6.53Z"/>
      <path class="cls-1" d="M98.62,287.57v-21.97h3.33v21.97h-3.33Z"/>
      <path class="cls-1" d="M113.08,287.57l-4.36-14.56h-.06v14.56h-3.14v-21.97h3.7l3.92,13.09h.06v-13.09h3.14v21.97h-3.26Z"/>
      <path class="cls-1" d="M130,270.56v1.51l-3.2.16v-1.32c0-1.76-.66-2.54-1.95-2.54s-1.95.78-1.95,2.23v11.99c0,1.44.63,2.23,1.91,2.23s1.91-.79,1.91-2.54v-3.77h-1.88v-3.08h5.15v7.19c0,3.33-1.91,5.27-5.24,5.27s-5.18-1.95-5.18-5.27v-12.05c0-3.33,1.88-5.27,5.18-5.27s5.24,1.95,5.24,5.27Z"/>
      <path class="cls-1" d="M143.9,265.6c3.58,0,5.52,1.95,5.52,5.55v1.76c0,3.61-1.95,5.56-5.52,5.56h-1.48v9.1h-3.33v-21.97h4.8ZM142.42,275.39h1.35c1.6,0,2.32-.85,2.32-2.7v-1.32c0-1.85-.72-2.7-2.32-2.7h-1.35v6.72Z"/>
      <path class="cls-1" d="M158.12,287.57l-.72-4.99h-3.67l-.72,4.99h-3.33l3.8-21.97h4.24l3.8,21.97h-3.39ZM154.16,279.56h2.79l-1.35-9.26h-.09l-1.35,9.26Z"/>
      <path class="cls-1" d="M168.69,265.6c3.58,0,5.52,1.95,5.52,5.55v1.76c0,3.61-1.95,5.56-5.52,5.56h-1.48v9.1h-3.33v-21.97h4.8ZM167.22,275.39h1.35c1.6,0,2.32-.85,2.32-2.7v-1.32c0-1.85-.72-2.7-2.32-2.7h-1.35v6.72Z"/>
      <path class="cls-1" d="M179.99,268.67v6.21h4.87v3.08h-4.87v6.53h6.03v3.08h-9.35v-21.97h9.35v3.08h-6.03Z"/>
      <path class="cls-1" d="M193.39,278.28h-1.54v9.29h-3.33v-21.97h4.8c3.58,0,5.52,1.95,5.52,5.55v1.57c0,2.32-.82,3.96-2.35,4.83l3.04,10.01h-3.52l-2.64-9.29ZM191.85,275.2h1.35c1.6,0,2.32-.85,2.32-2.7v-1.13c0-1.85-.72-2.7-2.32-2.7h-1.35v6.53Z"/>
      <path class="cls-1" d="M206.91,278.21v-3.2h6.69v3.2h-6.69Z"/>
      <path class="cls-1" d="M225.62,287.57v-16.89h-4.58v-2.32c2.67-.19,4.9-1.1,5.59-2.76h2.32v21.97h-3.33Z"/>
      <path class="cls-1" d="M241.75,268.74h-6.06l-.28,5.18h.06c.47-.53,1.29-.97,2.61-.97,2.76,0,4.49,1.95,4.49,5.4v4.14c0,3.39-1.98,5.4-5.3,5.4s-5.3-1.95-5.3-5.27v-.85l3.2-.16v.6c0,1.79.69,2.61,2.01,2.61s2.07-.91,2.07-2.54v-3.7c0-1.63-.72-2.54-2.07-2.54-1.13,0-1.85.66-1.98,1.85l-.03.44-3.08-.13.69-12.59h8.98v3.14Z"/>
      <path class="cls-1" d="M255.65,270.84v11.49c0,3.45-2.04,5.55-5.37,5.55s-5.37-2.1-5.37-5.55v-11.49c0-3.45,2.04-5.56,5.37-5.56s5.37,2.1,5.37,5.56ZM248.24,270.87v11.42c0,1.63.72,2.51,2.04,2.51s2.04-.88,2.04-2.51v-11.42c0-1.63-.72-2.51-2.04-2.51s-2.04.88-2.04,2.51Z"/>
      <path class="cls-1" d="M273.44,270.31v.63l-3.2.31v-.69c0-1.51-.57-2.2-1.73-2.2-.97,0-1.66.53-1.66,1.79v.47c0,1.22.63,2.23,2.79,4.21,2.95,2.73,3.96,4.52,3.96,7.06v1.07c0,3.23-2.04,4.93-5.08,4.93s-5.15-1.79-5.15-5.02v-1.44l3.2-.31v1.51c0,1.47.69,2.2,1.88,2.2,1,0,1.82-.53,1.82-2.1v-.69c0-1.38-.63-2.39-2.79-4.36-2.95-2.73-3.95-4.52-3.95-6.91v-.53c0-3.23,1.88-4.93,4.96-4.93s4.96,1.79,4.96,5.02Z"/>
      <path class="cls-1" d="M283.01,287.57v-9.57h-3.96v9.57h-3.33v-21.97h3.33v9.26h3.96v-9.26h3.33v21.97h-3.33Z"/>
      <path class="cls-1" d="M293.24,268.67v6.21h4.87v3.08h-4.87v6.53h6.03v3.08h-9.35v-21.97h9.35v3.08h-6.03Z"/>
      <path class="cls-1" d="M305.42,268.67v6.21h4.87v3.08h-4.87v6.53h6.03v3.08h-9.35v-21.97h9.35v3.08h-6.03Z"/>
      <path class="cls-1" d="M319.66,268.74v18.83h-3.33v-18.83h-3.55v-3.14h10.42v3.14h-3.55Z"/>
      <path class="cls-1" d="M334.19,270.31v.63l-3.2.31v-.69c0-1.51-.57-2.2-1.73-2.2-.97,0-1.66.53-1.66,1.79v.47c0,1.22.63,2.23,2.79,4.21,2.95,2.73,3.96,4.52,3.96,7.06v1.07c0,3.23-2.04,4.93-5.08,4.93s-5.15-1.79-5.15-5.02v-1.44l3.2-.31v1.51c0,1.47.69,2.2,1.88,2.2,1,0,1.82-.53,1.82-2.1v-.69c0-1.38-.63-2.39-2.79-4.36-2.95-2.73-3.95-4.52-3.95-6.91v-.53c0-3.23,1.88-4.93,4.96-4.93s4.96,1.79,4.96,5.02Z"/>
    </g>
    <g id="Brand_Text">
      <g>
        <path class="cls-1" d="M23.93,133.4c17.78,0,27.31,10.02,27.31,28.61v2.1c0,12.61-3.72,20.04-12.77,23.11v.32c10.67,3.23,15.19,11.64,15.19,26.51v3.88c0,18.59-10.02,28.61-28.45,28.61H0v-113.13h23.92ZM17.14,180.11h5.33c8.24,0,11.64-4.2,11.64-13.74v-3.72c0-9.21-3.39-13.41-10.83-13.41h-6.14v30.87ZM17.14,230.69h7.43c8.24,0,11.96-4.36,11.96-13.9v-6.3c0-10.02-3.72-14.55-12.77-14.55h-6.63v34.75Z"/>
        <path class="cls-1" d="M121.06,160.39v59.15c0,17.78-10.51,28.61-27.64,28.61s-27.64-10.83-27.64-28.61v-59.15c0-17.78,10.51-28.61,27.64-28.61s27.64,10.83,27.64,28.61ZM82.91,160.55v58.83c0,8.4,3.72,12.93,10.51,12.93s10.51-4.53,10.51-12.93v-58.83c0-8.4-3.72-12.93-10.51-12.93s-10.51,4.53-10.51,12.93Z"/>
        <path class="cls-1" d="M189.74,221.16c0,17.78-10.18,26.99-26.67,26.99s-26.34-9.21-26.34-26.99v-87.76h16.49v87.28c0,8.24,3.72,11.31,9.7,11.31s9.7-3.07,9.7-11.31v-87.28h17.13v87.76Z"/>
        <path class="cls-1" d="M246.14,246.53l-22.46-74.99h-.32v74.99h-16.16v-113.13h19.07l20.2,67.4h.32v-67.4h16.16v113.13h-16.81Z"/>
        <path class="cls-1" d="M305.94,133.4c18.42,0,28.45,10.02,28.45,28.61v55.92c0,18.59-10.02,28.61-28.45,28.61h-24.57v-113.13h24.57ZM298.5,230.69h6.79c8.24,0,11.96-4.36,11.96-13.9v-53.66c0-9.54-3.72-13.9-11.96-13.9h-6.79v81.46Z"/>
      </g>
      <g>
        <path class="cls-1" d="M53.66,27.15v7.76l-16.49.81v-6.79c0-9.05-3.39-13.09-10.02-13.09s-10.02,4.04-10.02,11.48v61.74c0,7.43,3.23,11.48,9.86,11.48s9.86-4.04,9.86-13.09v-19.39h-9.7v-15.84h26.51v37.01c0,17.13-9.86,27.15-26.99,27.15S0,106.35,0,89.21V27.15C0,10.02,9.7,0,26.67,0s26.99,10.02,26.99,27.15Z"/>
        <path class="cls-1" d="M93.25,66.91h-7.92v47.84h-17.13V1.62h24.73c18.42,0,28.45,10.02,28.45,28.61v8.08c0,11.96-4.2,20.36-12.12,24.89l15.68,51.56h-18.1l-13.58-47.84ZM85.33,51.07h6.95c8.24,0,11.96-4.36,11.96-13.9v-5.82c0-9.54-3.72-13.9-11.96-13.9h-6.95v33.62Z"/>
        <path class="cls-1" d="M137.37,114.75V1.62h17.13v113.13h-17.13Z"/>
        <path class="cls-1" d="M197.49,1.62c18.42,0,28.45,10.02,28.45,28.61v55.92c0,18.59-10.02,28.61-28.45,28.61h-24.57V1.62h24.57ZM190.05,98.91h6.79c8.24,0,11.96-4.36,11.96-13.9V31.35c0-9.54-3.72-13.9-11.96-13.9h-6.79v81.46Z"/>
      </g>
      <path class="cls-1" d="M312.93,53.17v13.25h-24.89v26.83h-13.25v-26.83h-24.89v-13.25h24.89v-26.83h13.25v26.83h24.89Z"/>
    </g>
  </g>
</svg>